<svg xmlns="http://www.w3.org/2000/svg" viewBox="0 0 2400 1600" preserveAspectRatio="xMidYMid slice">
  <defs>
    <linearGradient id="sky" x1="0" y1="0" x2="1" y2="1">
      <stop offset="0" stop-color="#d79b4c"/>
      <stop offset=".22" stop-color="#93ad63"/>
      <stop offset=".58" stop-color="#254f37"/>
      <stop offset="1" stop-color="#07130f"/>
    </linearGradient>
    <linearGradient id="canopy" x1="0" y1="0" x2="0" y2="1">
      <stop offset="0" stop-color="#8ead69"/>
      <stop offset=".55" stop-color="#376544"/>
      <stop offset="1" stop-color="#0f2a1e"/>
    </linearGradient>
    <linearGradient id="ground" x1="0" y1="0" x2="0" y2="1">
      <stop offset="0" stop-color="#5d814c"/>
      <stop offset="1" stop-color="#081b13"/>
    </linearGradient>
    <linearGradient id="sunbeam" x1="0" y1="0" x2="1" y2="1">
      <stop offset="0" stop-color="#f0c772" stop-opacity=".68"/>
      <stop offset=".62" stop-color="#f0c772" stop-opacity=".16"/>
      <stop offset="1" stop-color="#f0c772" stop-opacity="0"/>
    </linearGradient>
    <filter id="soft">
      <feGaussianBlur stdDeviation="14"/>
    </filter>
  </defs>

  <rect width="2400" height="1600" fill="#101d16"/>
  <rect width="2400" height="1600" fill="url(#sky)" opacity=".86"/>

  <circle cx="405" cy="245" r="128" fill="#f0c772" opacity=".82"/>
  <circle cx="405" cy="245" r="220" fill="#f0c772" opacity=".16" filter="url(#soft)"/>
  <path d="M230 0h190L1260 1600h-310z" fill="url(#sunbeam)" opacity=".64" filter="url(#soft)"/>
  <path d="M510 0h150L1510 1600h-230z" fill="url(#sunbeam)" opacity=".34" filter="url(#soft)"/>

  <g opacity=".96">
    <path d="M-120 910c270-150 496-156 694-72 166 70 312 89 498 15 257-102 485-119 758-3 230 98 417 103 676 3v747H-120z" fill="#244f37"/>
    <path d="M-120 1040c345-132 608-103 878 12 301 128 586 72 812-46 322-168 620-112 930 70v524H-120z" fill="url(#canopy)"/>
    <path d="M-120 1242c480-125 746-52 1010 16 295 76 616 83 982-70 244-102 440-66 628 48v364H-120z" fill="url(#ground)"/>
  </g>

  <g opacity=".92">
    <path d="M80 1540V758" stroke="#07130f" stroke-width="46" stroke-linecap="round"/>
    <path d="m80 836-210 286M92 934l232 274M78 1078l-160 242M92 1216l142 214" stroke="#0f2a1e" stroke-width="28" stroke-linecap="round"/>
    <ellipse cx="74" cy="740" rx="178" ry="118" fill="#376544"/>
    <ellipse cx="-46" cy="880" rx="160" ry="112" fill="#2c573b"/>
    <ellipse cx="198" cy="895" rx="190" ry="128" fill="#467349"/>

    <path d="M2250 1540V686" stroke="#07130f" stroke-width="52" stroke-linecap="round"/>
    <path d="m2250 780-260 318M2258 928l220 244M2250 1088l-182 244" stroke="#0f2a1e" stroke-width="32" stroke-linecap="round"/>
    <ellipse cx="2250" cy="660" rx="235" ry="148" fill="#3f6f45"/>
    <ellipse cx="2068" cy="850" rx="202" ry="130" fill="#2f5d3f"/>
    <ellipse cx="2388" cy="876" rx="210" ry="138" fill="#547b4b"/>

    <path d="M1775 1540V820" stroke="#0a1f16" stroke-width="36" stroke-linecap="round"/>
    <path d="m1776 890-188 244M1785 1000l160 188M1774 1148l-120 176" stroke="#123522" stroke-width="24" stroke-linecap="round"/>
    <ellipse cx="1778" cy="794" rx="190" ry="120" fill="#426f46"/>
    <ellipse cx="1648" cy="970" rx="158" ry="104" fill="#315f40"/>
    <ellipse cx="1916" cy="976" rx="172" ry="110" fill="#5c814d"/>
  </g>

  <g opacity=".58">
    <path d="M470 1530V1000" stroke="#0b2218" stroke-width="26" stroke-linecap="round"/>
    <ellipse cx="470" cy="982" rx="150" ry="96" fill="#3f6f45"/>
    <path d="M690 1530V880" stroke="#0b2218" stroke-width="34" stroke-linecap="round"/>
    <ellipse cx="690" cy="850" rx="215" ry="132" fill="#527446"/>
    <path d="M1420 1530V930" stroke="#0a1d14" stroke-width="32" stroke-linecap="round"/>
    <ellipse cx="1420" cy="905" rx="196" ry="122" fill="#476f43"/>
    <path d="M1575 1530V1045" stroke="#0b2218" stroke-width="24" stroke-linecap="round"/>
    <ellipse cx="1575" cy="1032" rx="152" ry="96" fill="#5f814b"/>
  </g>

  <g fill="none" stroke-linecap="round" stroke-linejoin="round" opacity=".32">
    <path d="M1084 1160c68 0 124 54 124 122 0 28-10 54-27 75" stroke="#d4e8bd" stroke-width="10"/>
    <path d="m1162 1337 29 29-41 3" stroke="#d4e8bd" stroke-width="10"/>
    <path d="M1044 1390c-66-7-116-62-116-130 0-30 10-58 27-80" stroke="#d4e8bd" stroke-width="10"/>
    <path d="m974 1200-30-28 41-5" stroke="#d4e8bd" stroke-width="10"/>
  </g>

  <rect y="1398" width="2400" height="202" fill="#06120d" opacity=".56"/>
</svg>
