<svg xmlns="http://www.w3.org/2000/svg" width="240" height="240" viewBox="0 0 240 240">
  <rect width="240" height="240" fill="#e2e8d8"/>
  <g fill="none" stroke-linecap="round">
    <path d="M12 28c22 8 43 6 62-7" stroke="#123f2d" stroke-opacity=".10" stroke-width="1.4"/>
    <path d="M126 18c16 14 34 17 55 9" stroke="#3f788c" stroke-opacity=".10" stroke-width="1.2"/>
    <path d="M46 72c29-10 54-9 75 3" stroke="#bd7042" stroke-opacity=".12" stroke-width="1.1"/>
    <path d="M155 82c18 3 38-2 60-15" stroke="#123f2d" stroke-opacity=".11" stroke-width="1.5"/>
    <path d="M18 126c35 4 64-5 88-27" stroke="#5f9562" stroke-opacity=".12" stroke-width="1.3"/>
    <path d="M116 136c24 8 50 5 77-8" stroke="#3f788c" stroke-opacity=".09" stroke-width="1.2"/>
    <path d="M37 184c20-18 43-24 69-18" stroke="#123f2d" stroke-opacity=".10" stroke-width="1.4"/>
    <path d="M142 202c22-12 45-14 70-7" stroke="#bd7042" stroke-opacity=".10" stroke-width="1.3"/>
    <path d="M210 24c-18 26-21 52-8 78" stroke="#5f9562" stroke-opacity=".10" stroke-width="1.1"/>
    <path d="M82 208c-8-22-5-43 8-62" stroke="#3f788c" stroke-opacity=".08" stroke-width="1.2"/>
  </g>
  <g fill="#07130f" fill-opacity=".045">
    <circle cx="24" cy="46" r="1.2"/>
    <circle cx="94" cy="32" r="1"/>
    <circle cx="190" cy="54" r="1.3"/>
    <circle cx="62" cy="118" r="1.1"/>
    <circle cx="134" cy="104" r="1"/>
    <circle cx="216" cy="136" r="1.2"/>
    <circle cx="30" cy="212" r="1"/>
    <circle cx="122" cy="224" r="1.3"/>
    <circle cx="202" cy="206" r="1"/>
  </g>
</svg>
